<?xml version="1.0" encoding="UTF-8" standalone="no"?>
<!DOCTYPE svg PUBLIC "-//W3C//DTD SVG 1.1//EN"
 "http://www.w3.org/Graphics/SVG/1.1/DTD/svg11.dtd">
<!-- Generated by graphviz version 2.40.1 (20161225.0304)
 -->
<!-- Title: models_diagram Pages: 1 -->
<svg width="769pt" height="158pt"
 viewBox="0.00 0.00 769.34 158.00" xmlns="http://www.w3.org/2000/svg" xmlns:xlink="http://www.w3.org/1999/xlink">
<g id="graph0" class="graph" transform="scale(1 1) rotate(0) translate(4 154)">
<title>models_diagram</title>
<polygon fill="transparent" stroke="transparent" points="-4,4 -4,-154 765.3431,-154 765.3431,4 -4,4"/>
<!-- _diagram_info -->
<g id="node1" class="node">
<title>_diagram_info</title>
<text text-anchor="start" x="8" y="-135.6" font-family="Times,serif" font-size="13.00" fill="#000000">Models diagram</text>
<text text-anchor="start" x="8" y="-121.6" font-family="Times,serif" font-size="13.00" fill="#000000">Date: Oct 24 2018 &#45; 16:01</text>
<text text-anchor="start" x="8" y="-107.6" font-family="Times,serif" font-size="13.00" fill="#000000">Migration version: 20181024130415</text>
<text text-anchor="start" x="8" y="-93.6" font-family="Times,serif" font-size="13.00" fill="#000000">Generated by RailRoady 1.5.3</text>
<text text-anchor="start" x="8" y="-79.6" font-family="Times,serif" font-size="13.00" fill="#000000">http://railroady.prestonlee.com</text>
</g>
<!-- Comment -->
<g id="node2" class="node">
<title>Comment</title>
<ellipse fill="none" stroke="#000000" cx="278" cy="-111" rx="46.2923" ry="18"/>
<text text-anchor="middle" x="278" y="-107.3" font-family="Times,serif" font-size="14.00" fill="#000000">Comment</text>
</g>
<!-- Category -->
<g id="node3" class="node">
<title>Category</title>
<ellipse fill="none" stroke="#000000" cx="385" cy="-111" rx="42.7926" ry="18"/>
<text text-anchor="middle" x="385" y="-107.3" font-family="Times,serif" font-size="14.00" fill="#000000">Category</text>
</g>
<!-- Article -->
<g id="node4" class="node">
<title>Article</title>
<ellipse fill="none" stroke="#000000" cx="481" cy="-111" rx="35.194" ry="18"/>
<text text-anchor="middle" x="481" y="-107.3" font-family="Times,serif" font-size="14.00" fill="#000000">Article</text>
</g>
<!-- Book -->
<g id="node5" class="node">
<title>Book</title>
<ellipse fill="none" stroke="#000000" cx="561" cy="-18" rx="29.795" ry="18"/>
<text text-anchor="middle" x="561" y="-14.3" font-family="Times,serif" font-size="14.00" fill="#000000">Book</text>
</g>
<!-- ApplicationRecord -->
<g id="node6" class="node">
<title>ApplicationRecord</title>
<ellipse fill="none" stroke="#000000" cx="684" cy="-111" rx="77.1866" ry="18"/>
<text text-anchor="middle" x="684" y="-107.3" font-family="Times,serif" font-size="14.00" fill="#000000">ApplicationRecord</text>
</g>
<!-- User -->
<g id="node7" class="node">
<title>User</title>
<ellipse fill="none" stroke="#000000" cx="561" cy="-111" rx="27.0966" ry="18"/>
<text text-anchor="middle" x="561" y="-107.3" font-family="Times,serif" font-size="14.00" fill="#000000">User</text>
</g>
<!-- User&#45;&gt;Book -->
<g id="edge1" class="edge">
<title>User&#45;&gt;Book</title>
<path fill="none" stroke="#e3193d" d="M561,-84.4432C561,-72.4479 561,-58.268 561,-46.0949"/>
<ellipse fill="none" stroke="#e3193d" cx="561" cy="-88.6262" rx="4" ry="4"/>
<polygon fill="#e3193d" stroke="#e3193d" points="561.0001,-46.0192 565.5,-36.0191 561,-41.0192 561,-36.0192 561,-36.0192 561,-36.0192 561,-41.0192 556.5,-36.0192 561.0001,-46.0192 561.0001,-46.0192"/>
</g>
</g>
</svg>
