<?xml version="1.0" encoding="UTF-8" standalone="no"?>
<!DOCTYPE svg PUBLIC "-//W3C//DTD SVG 1.1//EN"
 "http://www.w3.org/Graphics/SVG/1.1/DTD/svg11.dtd">
<!-- Generated by graphviz version 2.40.1 (20161225.0304)
 -->
<!-- Title: models_diagram Pages: 1 -->
<svg width="544pt" height="243pt"
 viewBox="0.00 0.00 544.34 243.00" xmlns="http://www.w3.org/2000/svg" xmlns:xlink="http://www.w3.org/1999/xlink">
<g id="graph0" class="graph" transform="scale(1 1) rotate(0) translate(4 239)">
<title>models_diagram</title>
<polygon fill="transparent" stroke="transparent" points="-4,4 -4,-239 540.3431,-239 540.3431,4 -4,4"/>
<!-- _diagram_info -->
<g id="node1" class="node">
<title>_diagram_info</title>
<text text-anchor="start" x="8" y="-206.1" font-family="Times,serif" font-size="13.00" fill="#000000">Models diagram</text>
<text text-anchor="start" x="8" y="-192.1" font-family="Times,serif" font-size="13.00" fill="#000000">Date: Oct 24 2018 &#45; 16:01</text>
<text text-anchor="start" x="8" y="-178.1" font-family="Times,serif" font-size="13.00" fill="#000000">Migration version: 20181024130415</text>
<text text-anchor="start" x="8" y="-164.1" font-family="Times,serif" font-size="13.00" fill="#000000">Generated by RailRoady 1.5.3</text>
<text text-anchor="start" x="8" y="-150.1" font-family="Times,serif" font-size="13.00" fill="#000000">http://railroady.prestonlee.com</text>
</g>
<!-- Book -->
<g id="node2" class="node">
<title>Book</title>
<path fill="none" stroke="#000000" d="M244.5,-.5C244.5,-.5 351.5,-.5 351.5,-.5 357.5,-.5 363.5,-6.5 363.5,-12.5 363.5,-12.5 363.5,-79.5 363.5,-79.5 363.5,-85.5 357.5,-91.5 351.5,-91.5 351.5,-91.5 244.5,-91.5 244.5,-91.5 238.5,-91.5 232.5,-85.5 232.5,-79.5 232.5,-79.5 232.5,-12.5 232.5,-12.5 232.5,-6.5 238.5,-.5 244.5,-.5"/>
<text text-anchor="middle" x="298" y="-76.3" font-family="Times,serif" font-size="14.00" fill="#000000">Book</text>
<polyline fill="none" stroke="#000000" points="232.5,-68.5 363.5,-68.5 "/>
<text text-anchor="start" x="240.5" y="-53.3" font-family="Times,serif" font-size="14.00" fill="#000000">id :integer</text>
<text text-anchor="start" x="240.5" y="-38.3" font-family="Times,serif" font-size="14.00" fill="#000000">created_at :datetime</text>
<text text-anchor="start" x="240.5" y="-23.3" font-family="Times,serif" font-size="14.00" fill="#000000">updated_at :datetime</text>
<text text-anchor="start" x="240.5" y="-8.3" font-family="Times,serif" font-size="14.00" fill="#000000">user_id :integer</text>
</g>
<!-- ApplicationRecord -->
<g id="node3" class="node">
<title>ApplicationRecord</title>
<ellipse fill="none" stroke="#000000" cx="459" cy="-181.5" rx="77.1866" ry="18"/>
<text text-anchor="middle" x="459" y="-177.8" font-family="Times,serif" font-size="14.00" fill="#000000">ApplicationRecord</text>
</g>
<!-- User -->
<g id="node4" class="node">
<title>User</title>
<path fill="none" stroke="#000000" d="M244.5,-128.5C244.5,-128.5 351.5,-128.5 351.5,-128.5 357.5,-128.5 363.5,-134.5 363.5,-140.5 363.5,-140.5 363.5,-222.5 363.5,-222.5 363.5,-228.5 357.5,-234.5 351.5,-234.5 351.5,-234.5 244.5,-234.5 244.5,-234.5 238.5,-234.5 232.5,-228.5 232.5,-222.5 232.5,-222.5 232.5,-140.5 232.5,-140.5 232.5,-134.5 238.5,-128.5 244.5,-128.5"/>
<text text-anchor="middle" x="298" y="-219.3" font-family="Times,serif" font-size="14.00" fill="#000000">User</text>
<polyline fill="none" stroke="#000000" points="232.5,-211.5 363.5,-211.5 "/>
<text text-anchor="start" x="240.5" y="-196.3" font-family="Times,serif" font-size="14.00" fill="#000000">id :integer</text>
<text text-anchor="start" x="240.5" y="-181.3" font-family="Times,serif" font-size="14.00" fill="#000000">created_at :datetime</text>
<text text-anchor="start" x="240.5" y="-166.3" font-family="Times,serif" font-size="14.00" fill="#000000">updated_at :datetime</text>
<text text-anchor="start" x="240.5" y="-151.3" font-family="Times,serif" font-size="14.00" fill="#000000">username :varchar</text>
<text text-anchor="start" x="240.5" y="-136.3" font-family="Times,serif" font-size="14.00" fill="#000000">email :varchar</text>
</g>
<!-- User&#45;&gt;Book -->
<g id="edge1" class="edge">
<title>User&#45;&gt;Book</title>
<path fill="none" stroke="#2a3b35" d="M298,-120.2791C298,-114.0894 298,-107.8262 298,-101.699"/>
<ellipse fill="none" stroke="#2a3b35" cx="298" cy="-124.3357" rx="4" ry="4"/>
<polygon fill="#2a3b35" stroke="#2a3b35" points="298.0001,-101.5525 302.5,-91.5525 298,-96.5525 298,-91.5525 298,-91.5525 298,-91.5525 298,-96.5525 293.5,-91.5525 298.0001,-101.5525 298.0001,-101.5525"/>
</g>
</g>
</svg>
